<svg width="30" height="30" viewBox="0 0 30 30" fill="none" xmlns="http://www.w3.org/2000/svg">
<path d="M4.39385 4.39385C7.22677 1.56 10.9938 0 15 0C19.0062 0 22.7732 1.56 25.6062 4.39385C28.44 7.22677 30 10.9929 30 15C30 19.0071 28.44 22.7732 25.6062 25.6062C22.7732 28.44 19.0062 30 15 30C10.9938 30 7.22677 28.44 4.39385 25.6062C1.56092 22.7732 0 19.0062 0 15C0 10.9938 1.56 7.22677 4.39385 4.39385ZM15 28.1926C22.2748 28.1926 28.1926 22.2748 28.1926 15C28.1926 7.72523 22.2748 1.80738 15 1.80738C7.72523 1.80738 1.80738 7.72523 1.80738 15C1.80738 22.2748 7.72523 28.1926 15 28.1926Z" fill="#008B70"/>
<path d="M10.967 8.49424L19.9787 19.3349C20.298 19.7189 20.2455 20.2883 19.8615 20.6075C19.4775 20.9267 18.9081 20.8743 18.5889 20.4903L9.57769 9.65033C9.25845 9.26631 9.3109 8.69694 9.69492 8.37771C10.0784 8.05776 10.6483 8.11092 10.967 8.49424Z" fill="#008B70"/>
<path d="M7.30507 18.3687L18.3149 9.56439C18.7049 9.25251 19.2732 9.31576 19.5851 9.70578C19.897 10.0958 19.8337 10.6641 19.4437 10.9759L8.43457 19.7796C8.04456 20.0915 7.47629 20.0283 7.1644 19.6382C6.8518 19.2488 6.91577 18.68 7.30507 18.3687Z" fill="#008B70"/>
</svg>
