<svg width="50" height="50" viewBox="0 0 50 50" fill="none" xmlns="http://www.w3.org/2000/svg">
<path d="M7.32308 7.32308C12.0446 2.6 18.3231 0 25 0C31.6769 0 37.9554 2.6 42.6769 7.32308C47.4 12.0446 50 18.3215 50 25C50 31.6785 47.4 37.9554 42.6769 42.6769C37.9554 47.4 31.6769 50 25 50C18.3231 50 12.0446 47.4 7.32308 42.6769C2.60154 37.9554 0 31.6769 0 25C0 18.3231 2.6 12.0446 7.32308 7.32308ZM25 46.9877C37.1246 46.9877 46.9877 37.1246 46.9877 25C46.9877 12.8754 37.1246 3.01231 25 3.01231C12.8754 3.01231 3.0123 12.8754 3.0123 25C3.0123 37.1246 12.8754 46.9877 25 46.9877Z" fill="#008B70"/>
<path d="M11.2446 23.4939H38.7554C39.5877 23.4939 40.2615 24.1677 40.2615 25C40.2615 25.8323 39.5877 26.5062 38.7554 26.5062H11.2446C10.4123 26.5062 9.73845 25.8323 9.73845 25C9.73845 24.1677 10.4138 23.4939 11.2446 23.4939Z" fill="#008B70"/>
<path d="M13.2523 15.2108H36.7476C37.5799 15.2108 38.2538 15.8846 38.2538 16.717C38.2538 17.5493 37.5799 18.2231 36.7476 18.2231H13.2538C12.4215 18.2231 11.7476 17.5493 11.7476 16.717C11.7461 15.8846 12.4215 15.2108 13.2523 15.2108Z" fill="#008B70"/>
<path d="M13.2523 31.7769H36.7476C37.5799 31.7769 38.2538 32.4507 38.2538 33.2831C38.2538 34.1154 37.5799 34.7892 36.7476 34.7892H13.2538C12.4215 34.7892 11.7476 34.1154 11.7476 33.2831C11.7461 32.4507 12.4215 31.7769 13.2523 31.7769Z" fill="#008B70"/>
</svg>
